name Walk2.mot
datacolumns 19
datarows 30
range 1.36500000 1.39400000
endheader

                time	   L_ground_force_vx	   L_ground_force_vy	   L_ground_force_vz	   L_ground_force_px	   L_ground_force_py	   L_ground_force_pz	   R_ground_force_vx	   R_ground_force_vy	   R_ground_force_vz	   R_ground_force_px	   R_ground_force_py	   R_ground_force_pz	   L_ground_torque_x	   L_ground_torque_y	   L_ground_torque_z	   R_ground_torque_x	   R_ground_torque_y	   R_ground_torque_z	
          1.36500000	          0.00000000	          0.00000000	          0.00000000	          0.00000000	          0.00000000	          0.00000000	         23.99917480	        637.25050672	         40.74194318	         -0.11563277	          0.00000000	         -0.06527985	          0.00000000	          0.00000000	          0.00000000	          0.00000000	         -1.32832097	          0.00000000	
          1.36600000	          0.00000000	          0.00000000	          0.00000000	          0.00000000	          0.00000000	          0.00000000	         24.20372379	        638.44748727	         41.05582853	         -0.11487260	          0.00000000	         -0.06537788	          0.00000000	          0.00000000	          0.00000000	          0.00000000	         -1.31703615	          0.00000000	
          1.36700000	          0.00000000	          0.00000000	          0.00000000	          0.00000000	          0.00000000	          0.00000000	         24.40898244	        639.57621689	         41.39346332	         -0.11407095	          0.00000000	         -0.06547703	          0.00000000	          0.00000000	          0.00000000	          0.00000000	         -1.29768079	          0.00000000	
          1.36800000	          0.00000000	          0.00000000	          0.00000000	          0.00000000	          0.00000000	          0.00000000	         24.61622407	        640.66323996	         41.74933576	         -0.11322336	          0.00000000	         -0.06557575	          0.00000000	          0.00000000	          0.00000000	          0.00000000	         -1.27139898	          0.00000000	
          1.36900000	          0.00000000	          0.00000000	          0.00000000	          0.00000000	          0.00000000	          0.00000000	         24.81924665	        641.75318227	         42.10820646	         -0.11235562	          0.00000000	         -0.06566893	          0.00000000	          0.00000000	          0.00000000	          0.00000000	         -1.24310967	          0.00000000	
          1.37000000	          0.00000000	          0.00000000	          0.00000000	          0.00000000	          0.00000000	          0.00000000	         25.01279831	        642.89088352	         42.45455471	         -0.11150905	          0.00000000	         -0.06575716	          0.00000000	          0.00000000	          0.00000000	          0.00000000	         -1.21327669	          0.00000000	
          1.37100000	          0.00000000	          0.00000000	          0.00000000	          0.00000000	          0.00000000	          0.00000000	         25.19622277	        644.12478204	         42.78376344	         -0.11070600	          0.00000000	         -0.06585613	          0.00000000	          0.00000000	          0.00000000	          0.00000000	         -1.17952078	          0.00000000	
          1.37200000	          0.00000000	          0.00000000	          0.00000000	          0.00000000	          0.00000000	          0.00000000	         25.37746317	        645.48413026	         43.09885313	         -0.10993801	          0.00000000	         -0.06599236	          0.00000000	          0.00000000	          0.00000000	          0.00000000	         -1.14425770	          0.00000000	
          1.37300000	          0.00000000	          0.00000000	          0.00000000	          0.00000000	          0.00000000	          0.00000000	         25.56993339	        646.95923911	         43.39924911	         -0.10918748	          0.00000000	         -0.06616972	          0.00000000	          0.00000000	          0.00000000	          0.00000000	         -1.11361630	          0.00000000	
          1.37400000	          0.00000000	          0.00000000	          0.00000000	          0.00000000	          0.00000000	          0.00000000	         25.77705168	        648.50922098	         43.68042940	         -0.10843582	          0.00000000	         -0.06635130	          0.00000000	          0.00000000	          0.00000000	          0.00000000	         -1.09085765	          0.00000000	
          1.37500000	          0.00000000	          0.00000000	          0.00000000	          0.00000000	          0.00000000	          0.00000000	         25.98882247	        650.08431132	         43.94144570	         -0.10766724	          0.00000000	         -0.06649634	          0.00000000	          0.00000000	          0.00000000	          0.00000000	         -1.07749745	          0.00000000	
          1.37600000	          0.00000000	          0.00000000	          0.00000000	          0.00000000	          0.00000000	          0.00000000	         26.19741847	        651.65057986	         44.18609943	         -0.10688995	          0.00000000	         -0.06660500	          0.00000000	          0.00000000	          0.00000000	          0.00000000	         -1.07613780	          0.00000000	
          1.37700000	          0.00000000	          0.00000000	          0.00000000	          0.00000000	          0.00000000	          0.00000000	         26.40359080	        653.19835838	         44.42232134	         -0.10613036	          0.00000000	         -0.06670312	          0.00000000	          0.00000000	          0.00000000	          0.00000000	         -1.08471714	          0.00000000	
          1.37800000	          0.00000000	          0.00000000	          0.00000000	          0.00000000	          0.00000000	          0.00000000	         26.60882839	        654.72568524	         44.66362409	         -0.10539481	          0.00000000	         -0.06679749	          0.00000000	          0.00000000	          0.00000000	          0.00000000	         -1.09447012	          0.00000000	
          1.37900000	          0.00000000	          0.00000000	          0.00000000	          0.00000000	          0.00000000	          0.00000000	         26.81377355	        656.22520396	         44.91943992	         -0.10466355	          0.00000000	         -0.06688474	          0.00000000	          0.00000000	          0.00000000	          0.00000000	         -1.10016768	          0.00000000	
          1.38000000	          0.00000000	          0.00000000	          0.00000000	          0.00000000	          0.00000000	          0.00000000	         27.02639742	        657.69431714	         45.18178238	         -0.10392522	          0.00000000	         -0.06698109	          0.00000000	          0.00000000	          0.00000000	          0.00000000	         -1.10287610	          0.00000000	
          1.38100000	          0.00000000	          0.00000000	          0.00000000	          0.00000000	          0.00000000	          0.00000000	         27.26187363	        659.16202731	         45.43510437	         -0.10318921	          0.00000000	         -0.06710185	          0.00000000	          0.00000000	          0.00000000	          0.00000000	         -1.09946256	          0.00000000	
          1.38200000	          0.00000000	          0.00000000	          0.00000000	          0.00000000	          0.00000000	          0.00000000	         27.52822209	        660.70353909	         45.67867889	         -0.10246481	          0.00000000	         -0.06724079	          0.00000000	          0.00000000	          0.00000000	          0.00000000	         -1.08371926	          0.00000000	
          1.38300000	          0.00000000	          0.00000000	          0.00000000	          0.00000000	          0.00000000	          0.00000000	         27.82034039	        662.40223013	         45.92638961	         -0.10176144	          0.00000000	         -0.06738993	          0.00000000	          0.00000000	          0.00000000	          0.00000000	         -1.05906564	          0.00000000	
          1.38400000	          0.00000000	          0.00000000	          0.00000000	          0.00000000	          0.00000000	          0.00000000	         28.13060188	        664.27609745	         46.18676884	         -0.10110043	          0.00000000	         -0.06754282	          0.00000000	          0.00000000	          0.00000000	          0.00000000	         -1.03544653	          0.00000000	
          1.38500000	          0.00000000	          0.00000000	          0.00000000	          0.00000000	          0.00000000	          0.00000000	         28.45241137	        666.24935249	         46.45488766	         -0.10048584	          0.00000000	         -0.06767998	          0.00000000	          0.00000000	          0.00000000	          0.00000000	         -1.01575345	          0.00000000	
          1.38600000	          0.00000000	          0.00000000	          0.00000000	          0.00000000	          0.00000000	          0.00000000	         28.77638999	        668.20771027	         46.72248509	         -0.09988073	          0.00000000	         -0.06778786	          0.00000000	          0.00000000	          0.00000000	          0.00000000	         -0.99878319	          0.00000000	
          1.38700000	          0.00000000	          0.00000000	          0.00000000	          0.00000000	          0.00000000	          0.00000000	         29.10108941	        670.07091776	         46.98612909	         -0.09924351	          0.00000000	         -0.06787722	          0.00000000	          0.00000000	          0.00000000	          0.00000000	         -0.98820737	          0.00000000	
          1.38800000	          0.00000000	          0.00000000	          0.00000000	          0.00000000	          0.00000000	          0.00000000	         29.44081092	        671.81698000	         47.24831593	         -0.09856596	          0.00000000	         -0.06796451	          0.00000000	          0.00000000	          0.00000000	          0.00000000	         -0.98508024	          0.00000000	
          1.38900000	          0.00000000	          0.00000000	          0.00000000	          0.00000000	          0.00000000	          0.00000000	         29.80924070	        673.48491390	         47.51874395	         -0.09786595	          0.00000000	         -0.06805898	          0.00000000	          0.00000000	          0.00000000	          0.00000000	         -0.98105522	          0.00000000	
          1.39000000	          0.00000000	          0.00000000	          0.00000000	          0.00000000	          0.00000000	          0.00000000	         30.20774378	        675.16314913	         47.80758469	         -0.09716988	          0.00000000	         -0.06817067	          0.00000000	          0.00000000	          0.00000000	          0.00000000	         -0.97023358	          0.00000000	
          1.39100000	          0.00000000	          0.00000000	          0.00000000	          0.00000000	          0.00000000	          0.00000000	         30.63461559	        676.92721858	         48.11187668	         -0.09650308	          0.00000000	         -0.06830617	          0.00000000	          0.00000000	          0.00000000	          0.00000000	         -0.95729958	          0.00000000	
          1.39200000	          0.00000000	          0.00000000	          0.00000000	          0.00000000	          0.00000000	          0.00000000	         31.08930059	        678.78461525	         48.41821902	         -0.09587707	          0.00000000	         -0.06845463	          0.00000000	          0.00000000	          0.00000000	          0.00000000	         -0.94731876	          0.00000000	
          1.39300000	          0.00000000	          0.00000000	          0.00000000	          0.00000000	          0.00000000	          0.00000000	         31.56606605	        680.69591789	         48.71890988	         -0.09528170	          0.00000000	         -0.06859702	          0.00000000	          0.00000000	          0.00000000	          0.00000000	         -0.93822827	          0.00000000	
          1.39400000	          0.00000000	          0.00000000	          0.00000000	          0.00000000	          0.00000000	          0.00000000	         32.05773454	        682.62803893	         49.01421400	         -0.09469799	          0.00000000	         -0.06872637	          0.00000000	          0.00000000	          0.00000000	          0.00000000	         -0.92653911	          0.00000000	
